<svg width="20" height="22" viewBox="0 0 20 22" fill="none" xmlns="http://www.w3.org/2000/svg">
<path fill-rule="evenodd" clip-rule="evenodd" d="M10.6243 21.4262L10.6127 21.4282L10.538 21.4643L10.5169 21.4685L10.5022 21.4643L10.4274 21.4282C10.4162 21.4248 10.4078 21.4265 10.4022 21.4334L10.398 21.4437L10.3801 21.8855L10.3853 21.9061L10.3959 21.9195L10.5053 21.9959L10.5211 22.0001L10.5338 21.9959L10.6432 21.9195L10.6559 21.903L10.6601 21.8855L10.6422 21.4447C10.6394 21.4337 10.6334 21.4275 10.6243 21.4262ZM10.9032 21.3095L10.8896 21.3116L10.6948 21.4076L10.6843 21.4179L10.6811 21.4293L10.7001 21.8731L10.7053 21.8855L10.7138 21.8927L10.9253 21.9887C10.9387 21.9921 10.9488 21.9894 10.9559 21.9804L10.9601 21.966L10.9243 21.3322C10.9208 21.3198 10.9138 21.3123 10.9032 21.3095ZM10.1506 21.3116C10.146 21.3088 10.1404 21.3079 10.1351 21.3091C10.1298 21.3102 10.1252 21.3134 10.1222 21.3178L10.1159 21.3322L10.0801 21.966C10.0808 21.9784 10.0867 21.9866 10.098 21.9908L10.1138 21.9887L10.3253 21.8927L10.3359 21.8844L10.3401 21.8731L10.358 21.4293L10.3548 21.4169L10.3443 21.4065L10.1506 21.3116Z" fill="#0C7288"/>
<path fill-rule="evenodd" clip-rule="evenodd" d="M16.8421 1.54828C16.8421 1.13765 16.6758 0.74384 16.3796 0.453481C16.0835 0.163122 15.6819 0 15.2632 0C14.8444 0 14.4428 0.163122 14.1467 0.453481C13.8506 0.74384 13.6842 1.13765 13.6842 1.54828V2.06437H1.57895C1.16018 2.06437 0.758573 2.2275 0.462463 2.51786C0.166353 2.80821 0 3.20203 0 3.61266C0 4.02329 0.166353 4.4171 0.462463 4.70746C0.758573 4.99782 1.16018 5.16094 1.57895 5.16094H13.6842V5.67703C13.6842 6.08766 13.8506 6.48147 14.1467 6.77183C14.4428 7.06219 14.8444 7.22531 15.2632 7.22531C15.6819 7.22531 16.0835 7.06219 16.3796 6.77183C16.6758 6.48147 16.8421 6.08766 16.8421 5.67703V5.16094H18.4211C18.8398 5.16094 19.2414 4.99782 19.5375 4.70746C19.8336 4.4171 20 4.02329 20 3.61266C20 3.20203 19.8336 2.80821 19.5375 2.51786C19.2414 2.2275 18.8398 2.06437 18.4211 2.06437H16.8421V1.54828ZM1.57895 8.2575C1.16018 8.2575 0.758573 8.42062 0.462463 8.71098C0.166353 9.00134 0 9.39515 0 9.80578C0 10.2164 0.166353 10.6102 0.462463 10.9006C0.758573 11.1909 1.16018 11.3541 1.57895 11.3541H3.15789V11.8702C3.15789 12.2808 3.32425 12.6746 3.62036 12.965C3.91647 13.2553 4.31808 13.4184 4.73684 13.4184C5.15561 13.4184 5.55722 13.2553 5.85333 12.965C6.14944 12.6746 6.31579 12.2808 6.31579 11.8702V11.3541H18.4211C18.8398 11.3541 19.2414 11.1909 19.5375 10.9006C19.8336 10.6102 20 10.2164 20 9.80578C20 9.39515 19.8336 9.00134 19.5375 8.71098C19.2414 8.42062 18.8398 8.2575 18.4211 8.2575H6.31579V7.74141C6.31579 7.53808 6.27495 7.33675 6.1956 7.1489C6.11625 6.96106 5.99995 6.79038 5.85333 6.64661C5.70671 6.50283 5.53265 6.38879 5.34108 6.31098C5.14951 6.23317 4.94419 6.19312 4.73684 6.19312C4.52949 6.19312 4.32417 6.23317 4.13261 6.31098C3.94104 6.38879 3.76698 6.50283 3.62036 6.64661C3.47374 6.79038 3.35743 6.96106 3.27808 7.1489C3.19874 7.33675 3.15789 7.53808 3.15789 7.74141V8.2575H1.57895ZM0 15.9989C0 15.5883 0.166353 15.1945 0.462463 14.9041C0.758573 14.6137 1.16018 14.4506 1.57895 14.4506H13.6842V13.9345C13.6842 13.5239 13.8506 13.1301 14.1467 12.8397C14.4428 12.5494 14.8444 12.3862 15.2632 12.3862C15.6819 12.3862 16.0835 12.5494 16.3796 12.8397C16.6758 13.1301 16.8421 13.5239 16.8421 13.9345V14.4506H18.4211C18.8398 14.4506 19.2414 14.6137 19.5375 14.9041C19.8336 15.1945 20 15.5883 20 15.9989C20 16.4095 19.8336 16.8033 19.5375 17.0937C19.2414 17.3841 18.8398 17.5472 18.4211 17.5472H16.8421V18.0633C16.8421 18.4739 16.6758 18.8677 16.3796 19.1581C16.0835 19.4484 15.6819 19.6116 15.2632 19.6116C14.8444 19.6116 14.4428 19.4484 14.1467 19.1581C13.8506 18.8677 13.6842 18.4739 13.6842 18.0633V17.5472H1.57895C1.16018 17.5472 0.758573 17.3841 0.462463 17.0937C0.166353 16.8033 0 16.4095 0 15.9989Z" fill="#0C7288"/>
</svg>
