<svg width="20" height="16" viewBox="0 0 20 16" fill="none" xmlns="http://www.w3.org/2000/svg">
<path d="M7.7 11.4286L10 9.6L12.2444 11.3851L11.3756 8.50972L13.7611 6.61143H10.9222L10 3.69143L9.07778 6.61029H6.23889L8.56778 8.50857L7.7 11.4286ZM1.79556 16C1.29778 16 0.874074 15.8202 0.524444 15.4606C0.174815 15.101 0 14.6655 0 14.1543V11.7474C0 11.5813 0.0400001 11.4297 0.12 11.2926C0.2 11.1554 0.312963 11.0526 0.458889 10.984C0.989259 10.6709 1.41593 10.2556 1.73889 9.73829C2.06185 9.22095 2.22296 8.64152 2.22222 8C2.22148 7.35848 2.06 6.77905 1.73778 6.26171C1.41556 5.74438 0.98963 5.32914 0.46 5.016C0.312593 4.94819 0.199259 4.84533 0.12 4.70743C0.0407408 4.56952 0.000740741 4.4179 0 4.25257V1.84686C0 1.33486 0.174815 0.899048 0.524444 0.539429C0.874074 0.17981 1.29778 0 1.79556 0H18.2056C18.7019 0 19.1252 0.17981 19.4756 0.539429C19.8252 0.899048 20 1.33486 20 1.84686V4.25143C20 4.41752 19.96 4.56914 19.88 4.70629C19.8 4.84343 19.687 4.94629 19.5411 5.01486C19.0107 5.328 18.5844 5.74324 18.2622 6.26057C17.94 6.7779 17.7785 7.35771 17.7778 8C17.777 8.64229 17.9385 9.22171 18.2622 9.73829C18.5844 10.2556 19.0104 10.6709 19.54 10.984C19.6874 11.0518 19.8007 11.1547 19.88 11.2926C19.9593 11.4305 19.9993 11.5821 20 11.7474V14.1531C20 14.6651 19.8252 15.101 19.4756 15.4606C19.1259 15.8202 18.7026 16 18.2056 16H1.79556Z" fill="white"/>
</svg>
