<svg width="20" height="20" viewBox="0 0 20 20" fill="none" xmlns="http://www.w3.org/2000/svg">
<path fill-rule="evenodd" clip-rule="evenodd" d="M11.3365 1.07297C11.3365 0.788402 11.2234 0.515488 11.0223 0.314266C10.8211 0.113045 10.5482 0 10.2637 0C9.9792 0 9.70634 0.113045 9.50516 0.314266C9.30398 0.515488 9.19096 0.788402 9.19096 1.07297V2.15167C9.19096 2.43624 9.30398 2.70915 9.50516 2.91037C9.70634 3.11159 9.9792 3.22464 10.2637 3.22464C10.5482 3.22464 10.8211 3.11159 11.0223 2.91037C11.2234 2.70915 11.3365 2.43624 11.3365 2.15167V1.07297ZM9.42267 4.16456C9.66908 4.02257 9.96178 3.98425 10.2364 4.05802C10.5111 4.1318 10.7452 4.31163 10.8873 4.55799L16.4056 14.116C16.5456 14.3623 16.5825 14.654 16.5083 14.9275C16.4341 15.2009 16.2547 15.4339 16.0094 15.5756C15.7641 15.7172 15.4727 15.7561 15.1988 15.6837C14.9249 15.6113 14.6908 15.4334 14.5476 15.189L14.4689 15.0517L10.0463 16.0788C10.244 16.8057 10.1708 17.5797 9.84041 18.2567C9.51001 18.9336 8.94489 19.4674 8.25029 19.7586C7.55569 20.0498 6.77896 20.0785 6.06472 19.8395C5.35049 19.6005 4.74744 19.1101 4.36787 18.4594L4.365 18.4551L3.8272 17.5238L1.74749 18.0059C1.59818 18.0406 1.44168 18.0263 1.30107 17.9653C1.16046 17.9042 1.04319 17.7996 0.966527 17.6668L0.0954528 16.1575C0.0189949 16.0248 -0.0128216 15.871 0.00468826 15.7187C0.0221981 15.5665 0.0881089 15.424 0.192716 15.312L9.11086 5.76973L9.02933 5.63096C8.95881 5.50886 8.91305 5.37406 8.89465 5.23426C8.87626 5.09446 8.88559 4.9524 8.92212 4.81622C8.95865 4.68003 9.02166 4.55238 9.10755 4.44056C9.19344 4.32875 9.30052 4.23496 9.42267 4.16456ZM6.01132 17.0159L7.95228 16.5653C8.03688 16.791 8.03347 17.0403 7.94275 17.2636C7.85203 17.4869 7.68062 17.6679 7.4626 17.7706C7.24458 17.8734 6.9959 17.8903 6.76597 17.818C6.53605 17.7458 6.34171 17.5897 6.22158 17.3807L6.01132 17.0159ZM20 9.73687C20 10.0214 19.887 10.2944 19.6858 10.4956C19.4846 10.6968 19.2118 10.8098 18.9272 10.8098H17.8488C17.5643 10.8098 17.2914 10.6968 17.0902 10.4956C16.889 10.2944 16.776 10.0214 16.776 9.73687C16.776 9.4523 16.889 9.17938 17.0902 8.97816C17.2914 8.77694 17.5643 8.66389 17.8488 8.66389H18.9258C19.2103 8.66389 19.4832 8.77694 19.6844 8.97816C19.8855 9.17938 20 9.4523 20 9.73687ZM2.6815 10.8098C2.96601 10.8098 3.23887 10.6968 3.44005 10.4956C3.64123 10.2944 3.75425 10.0214 3.75425 9.73687C3.75425 9.4523 3.64123 9.17938 3.44005 8.97816C3.23887 8.77694 2.96601 8.66389 2.6815 8.66389H1.60303C1.31851 8.66389 1.04566 8.77694 0.844476 8.97816C0.643297 9.17938 0.530275 9.4523 0.530275 9.73687C0.530275 10.0214 0.643297 10.2944 0.844476 10.4956C1.04566 10.6968 1.31851 10.8098 1.60303 10.8098H2.6815ZM5.80249 5.27616C5.60135 5.4771 5.32869 5.58996 5.04441 5.58996C4.76013 5.58996 4.48748 5.4771 4.28634 5.27616L3.3795 4.36914C3.27411 4.27091 3.18957 4.15246 3.13094 4.02084C3.07231 3.88922 3.04078 3.74714 3.03824 3.60307C3.0357 3.459 3.06219 3.3159 3.11615 3.1823C3.1701 3.04869 3.25041 2.92733 3.35227 2.82544C3.45414 2.72355 3.57548 2.64323 3.70906 2.58926C3.84263 2.5353 3.98571 2.5088 4.12975 2.51134C4.27379 2.51388 4.41584 2.54542 4.54743 2.60406C4.67902 2.6627 4.79745 2.74726 4.89566 2.85268L5.80392 3.75826C5.90361 3.85791 5.98269 3.97622 6.03664 4.10645C6.0906 4.23667 6.11837 4.37625 6.11837 4.51721C6.11837 4.65818 6.0906 4.79776 6.03664 4.92798C5.98269 5.05821 5.90218 5.17652 5.80249 5.27616ZM17.1479 4.36914C17.3374 4.16574 17.4406 3.89672 17.4357 3.61875C17.4308 3.34077 17.3182 3.07556 17.1216 2.87897C16.9251 2.68238 16.6599 2.56977 16.382 2.56487C16.1041 2.55996 15.8351 2.66315 15.6318 2.85268L14.7135 3.76828C14.5122 3.96956 14.3992 4.24257 14.3992 4.52723C14.3992 4.66818 14.4269 4.80775 14.4809 4.93797C14.5348 5.06819 14.6138 5.18651 14.7135 5.28618C14.8131 5.38584 14.9314 5.4649 15.0616 5.51884C15.1918 5.57278 15.3314 5.60054 15.4723 5.60054C15.7569 5.60054 16.0298 5.48746 16.2311 5.28618L17.1479 4.36914Z" fill="white"/>
</svg>
