<svg width="20" height="20" viewBox="0 0 20 20" fill="none" xmlns="http://www.w3.org/2000/svg">
<path d="M13.1111 6.66667C12.0065 6.66667 11.1111 5.77124 11.1111 4.66667V2C11.1111 0.895429 12.0065 0 13.1111 0H18C19.1046 0 20 0.895431 20 2V4.66667C20 5.77124 19.1046 6.66667 18 6.66667H13.1111ZM2 11.1111C0.895431 11.1111 0 10.2157 0 9.11111V2C0 0.89543 0.895431 0 2 0H6.88889C7.99346 0 8.88889 0.895431 8.88889 2V9.11111C8.88889 10.2157 7.99346 11.1111 6.88889 11.1111H2ZM13.1111 20C12.0065 20 11.1111 19.1046 11.1111 18V10.8889C11.1111 9.78432 12.0065 8.88889 13.1111 8.88889H18C19.1046 8.88889 20 9.78432 20 10.8889V18C20 19.1046 19.1046 20 18 20H13.1111ZM2 20C0.895431 20 0 19.1046 0 18V15.3333C0 14.2288 0.895431 13.3333 2 13.3333H6.88889C7.99346 13.3333 8.88889 14.2288 8.88889 15.3333V18C8.88889 19.1046 7.99346 20 6.88889 20H2Z" fill="white"/>
</svg>
