<svg width="20" height="21" viewBox="0 0 20 21" fill="none" xmlns="http://www.w3.org/2000/svg">
<path d="M3.33739 3.68289e-06C2.55041 -0.00116285 1.7884 0.274826 1.18634 0.779087C0.584283 1.28335 0.181018 1.98334 0.0479732 2.75508C-0.085072 3.52683 0.0606885 4.32052 0.459438 4.99558C0.858188 5.67064 1.48419 6.18351 2.22658 6.44335V15.4729C2.22658 16.3522 2.57767 17.1956 3.20262 17.8174C3.82757 18.4392 4.67518 18.7885 5.55899 18.7885H13.5235C13.7855 19.5262 14.3012 20.148 14.9795 20.5439C15.6578 20.9399 16.4549 21.0845 17.23 20.9523C18.0051 20.82 18.7082 20.4194 19.2151 19.8212C19.722 19.2229 20 18.4657 20 17.6833C20 16.9008 19.722 16.1436 19.2151 15.5454C18.7082 14.9472 18.0051 14.5466 17.23 14.4143C16.4549 14.282 15.6578 14.4267 14.9795 14.8226C14.3012 15.2186 13.7855 15.8404 13.5235 16.5781H5.55899C5.26439 16.5781 4.98185 16.4616 4.77354 16.2544C4.56522 16.0471 4.44819 15.766 4.44819 15.4729V11.052H13.5235C13.7855 11.7898 14.3012 12.4116 14.9795 12.8075C15.6578 13.2035 16.4549 13.3481 17.23 13.2158C18.0051 13.0836 18.7082 12.6829 19.2151 12.0847C19.722 11.4865 20 10.7293 20 9.94684C20 9.16441 19.722 8.40717 19.2151 7.80897C18.7082 7.21077 18.0051 6.81012 17.23 6.67786C16.4549 6.54559 15.6578 6.69022 14.9795 7.08618C14.3012 7.48213 13.7855 8.10392 13.5235 8.84164H4.44819V6.44335C5.18926 6.18235 5.81378 5.66917 6.21144 4.99446C6.6091 4.31974 6.7543 3.52691 6.6214 2.75601C6.4885 1.9851 6.08604 1.28573 5.48513 0.781433C4.88422 0.277136 4.12351 0.000362877 3.33739 3.68289e-06Z" fill="white"/>
</svg>
