<svg width="20" height="18" viewBox="0 0 20 18" fill="none" xmlns="http://www.w3.org/2000/svg">
<path d="M1.25 18C0.895837 18 0.599171 17.8766 0.360004 17.6297C0.120838 17.3828 0.000837643 17.0777 4.31034e-06 16.7143C-0.000829023 16.3508 0.119171 16.0457 0.360004 15.7988C0.600838 15.552 0.897504 15.4286 1.25 15.4286H11.25C11.6042 15.4286 11.9012 15.552 12.1412 15.7988C12.3812 16.0457 12.5008 16.3508 12.5 16.7143C12.4992 17.0777 12.3792 17.3833 12.14 17.631C11.9008 17.8787 11.6042 18.0017 11.25 18H1.25ZM1.25 12.8571C0.895837 12.8571 0.599171 12.7337 0.360004 12.4868C0.120838 12.24 0.000837643 11.9348 4.31034e-06 11.5714C-0.000829023 11.208 0.119171 10.9028 0.360004 10.656C0.600838 10.4091 0.897504 10.2857 1.25 10.2857H18.75C19.1042 10.2857 19.4012 10.4091 19.6412 10.656C19.8812 10.9028 20.0008 11.208 20 11.5714C19.9992 11.9348 19.8792 12.2404 19.64 12.4881C19.4008 12.7358 19.1042 12.8588 18.75 12.8571H1.25ZM1.25 7.71428C0.895837 7.71428 0.599171 7.59085 0.360004 7.34399C0.120838 7.09714 0.000837643 6.79199 4.31034e-06 6.42857C-0.000829023 6.06514 0.119171 5.75999 0.360004 5.51314C0.600838 5.26628 0.897504 5.14285 1.25 5.14285H18.75C19.1042 5.14285 19.4012 5.26628 19.6412 5.51314C19.8812 5.75999 20.0008 6.06514 20 6.42857C19.9992 6.79199 19.8792 7.09757 19.64 7.34528C19.4008 7.59299 19.1042 7.71599 18.75 7.71428H1.25ZM1.25 2.57143C0.895837 2.57143 0.599171 2.448 0.360004 2.20114C0.120838 1.95428 0.000837643 1.64914 4.31034e-06 1.28571C-0.000829023 0.922285 0.119171 0.617142 0.360004 0.370286C0.600838 0.123429 0.897504 0 1.25 0H18.75C19.1042 0 19.4012 0.123429 19.6412 0.370286C19.8812 0.617142 20.0008 0.922285 20 1.28571C19.9992 1.64914 19.8792 1.95471 19.64 2.20243C19.4008 2.45014 19.1042 2.57314 18.75 2.57143H1.25Z" fill="white"/>
</svg>
