<svg width="20" height="15" viewBox="0 0 20 15" fill="none" xmlns="http://www.w3.org/2000/svg">
<path d="M3.12552 0C2.29658 0 1.50159 0.32924 0.915444 0.915291C0.329295 1.50134 0 2.2962 0 3.125V3.75H20V3.125C20 2.2962 19.6707 1.50134 19.0846 0.915291C18.4984 0.32924 17.7034 0 16.8745 0H3.12552ZM0 11.875V5H20V11.875C20 12.7038 19.6707 13.4987 19.0846 14.0847C18.4984 14.6708 17.7034 15 16.8745 15H3.12635C2.29741 15 1.50243 14.6708 0.916278 14.0847C0.330129 13.4987 0.000833611 12.7038 0.000833611 11.875M13.5406 9.58333C13.3748 9.58333 13.2158 9.64918 13.0986 9.76639C12.9813 9.8836 12.9155 10.0426 12.9155 10.2083C12.9155 10.3741 12.9813 10.5331 13.0986 10.6503C13.2158 10.7675 13.3748 10.8333 13.5406 10.8333H16.4577C16.6235 10.8333 16.7825 10.7675 16.8998 10.6503C17.017 10.5331 17.0828 10.3741 17.0828 10.2083C17.0828 10.0426 17.017 9.8836 16.8998 9.76639C16.7825 9.64918 16.6235 9.58333 16.4577 9.58333H13.5406Z" fill="white"/>
</svg>
