<svg width="20" height="22" viewBox="0 0 20 22" fill="none" xmlns="http://www.w3.org/2000/svg">
<path d="M11.9227 19.9597H10C7.216 19.9597 4.85333 18.9914 2.912 17.0549C0.970667 15.1183 0 12.7618 0 9.98515C0 7.20854 0.970222 4.8502 2.91067 2.91012C4.85111 0.970039 7.21333 0 9.99733 0C11.3893 0 12.6916 0.259919 13.904 0.779757C15.1164 1.29871 16.1756 2.01016 17.0813 2.91411C17.9871 3.81806 18.7 4.87326 19.22 6.07971C19.74 7.28616 20 8.5862 20 9.97983C20 12.3377 19.4089 14.5488 18.2267 16.6131C17.0444 18.6774 15.5173 20.413 13.6453 21.8199C13.4578 21.9228 13.2742 21.9818 13.0947 21.9969C12.9151 22.012 12.7364 21.9725 12.5587 21.8784C12.3809 21.7844 12.2382 21.662 12.1307 21.5112C12.0231 21.3604 11.9667 21.1794 11.9613 20.9683L11.9227 19.9597ZM10.048 16.7275C10.32 16.7275 10.5511 16.6317 10.7413 16.4401C10.9316 16.2485 11.0262 16.0165 11.0253 15.7442C11.0244 15.4718 10.9284 15.2412 10.7373 15.0522C10.5462 14.8633 10.3138 14.7684 10.04 14.7675C9.76622 14.7666 9.53511 14.8624 9.34667 15.0549C9.15822 15.2474 9.06311 15.4794 9.06133 15.7508C9.05956 16.0223 9.156 16.2529 9.35067 16.4428C9.54533 16.6326 9.77778 16.7275 10.048 16.7275ZM7.27867 6.92201C7.43333 6.98144 7.58756 6.97745 7.74133 6.91003C7.89511 6.84261 8.02089 6.73394 8.11867 6.58403C8.30089 6.2833 8.55956 6.04378 8.89467 5.86548C9.22978 5.68806 9.61555 5.59935 10.052 5.59935C10.7062 5.59935 11.2382 5.77011 11.648 6.11165C12.0578 6.45318 12.2622 6.91491 12.2613 7.49685C12.2613 7.85701 12.1738 8.1941 11.9987 8.50814C11.8236 8.82217 11.5249 9.18987 11.1027 9.61124C10.5302 10.1674 10.1191 10.6447 9.86933 11.043C9.61956 11.4413 9.49511 11.8281 9.496 12.2033C9.496 12.3781 9.55289 12.5271 9.66667 12.6504C9.78045 12.7737 9.91822 12.8358 10.08 12.8367C10.2418 12.8376 10.3773 12.7755 10.4867 12.6504C10.596 12.528 10.6609 12.3763 10.6813 12.1953C10.7249 11.9204 10.8738 11.6152 11.128 11.2799C11.3831 10.9437 11.6924 10.5937 12.056 10.23C12.5573 9.73055 12.916 9.25951 13.132 8.81685C13.348 8.37419 13.456 7.93108 13.456 7.48753C13.456 6.57471 13.1404 5.84064 12.5093 5.28532C11.8782 4.73 11.076 4.45233 10.1027 4.45233C9.44844 4.45233 8.84578 4.61157 8.29467 4.93004C7.74267 5.24762 7.32844 5.62729 7.052 6.06907C6.95422 6.24826 6.92533 6.42036 6.96533 6.58536C7.00533 6.75036 7.10978 6.86257 7.27867 6.92201Z" fill="white"/>
</svg>
