<svg width="22" height="18" viewBox="0 0 22 18" fill="none" xmlns="http://www.w3.org/2000/svg">
<path d="M6.55556 16.5556H3.22222C2.63285 16.5556 2.06762 16.3214 1.65087 15.9047C1.23413 15.4879 1 14.9227 1 14.3333V3.22222C1 2.63285 1.23413 2.06762 1.65087 1.65087C2.06762 1.23413 2.63285 1 3.22222 1H18.7778C19.3671 1 19.9324 1.23413 20.3491 1.65087C20.7659 2.06762 21 2.63285 21 3.22222V15.4444C21 15.7391 20.8829 16.0217 20.6746 16.2301C20.4662 16.4385 20.1836 16.5556 19.8889 16.5556" stroke="white" stroke-width="2" stroke-linecap="round" stroke-linejoin="round"/>
<path d="M16.5553 16.5555C16.5553 15.9661 16.3212 15.4009 15.9045 14.9842C15.4877 14.5674 14.9225 14.3333 14.3331 14.3333H12.1109C11.5215 14.3333 10.9563 14.5674 10.5395 14.9842C10.1228 15.4009 9.88867 15.9661 9.88867 16.5555M10.9998 10.9999C10.9999 11.2918 11.0574 11.5809 11.1692 11.8505C11.281 12.1202 11.4448 12.3652 11.6512 12.5715C11.8577 12.7779 12.1027 12.9415 12.3725 13.0532C12.6422 13.1648 12.9312 13.2222 13.2231 13.2222C13.515 13.2221 13.804 13.1645 14.0737 13.0528C14.3433 12.941 14.5883 12.7772 14.7947 12.5707C15.001 12.3643 15.1647 12.1192 15.2764 11.8495C15.388 11.5798 15.4454 11.2907 15.4453 10.9988C15.4452 10.4093 15.2109 9.844 14.7939 9.42726C14.377 9.01051 13.8115 8.77646 13.222 8.77661C12.6325 8.77676 12.0672 9.01108 11.6504 9.42804C11.2337 9.845 10.9996 10.4104 10.9998 10.9999Z" stroke="white" stroke-width="2" stroke-linecap="round" stroke-linejoin="round"/>
</svg>
